<svg width="14" height="11" viewBox="0 0 14 11" fill="none" xmlns="http://www.w3.org/2000/svg">
<path d="M9.8 0.99998C9.8 0.63179 10.0985 0.333313 10.4667 0.333313C10.8912 0.333313 11.3083 0.418609 11.7143 0.580995C12.1561 0.757719 12.4961 1.01998 12.8047 1.32858C13.1133 1.63717 13.3756 1.97724 13.5523 2.41905C13.7147 2.82502 13.8 3.24215 13.8 3.66665C13.8 4.09114 13.7147 4.50828 13.5523 4.91424C13.3778 5.35051 13.1199 5.68758 12.8163 5.99309L12.16 6.7151C12.1528 6.72292 12.1455 6.73057 12.1381 6.73805L10.0047 8.87138C9.69614 9.17998 9.35606 9.44224 8.91426 9.61896C8.50829 9.78135 8.09115 9.86665 7.66666 9.86665C7.24217 9.86665 6.82503 9.78135 6.41907 9.61896C5.97726 9.44224 5.63718 9.17998 5.32859 8.87138C5.02 8.56279 4.75773 8.22272 4.58101 7.78091C4.4155 7.36713 4.33333 6.94961 4.33333 6.46665C4.33333 6.04215 4.41862 5.62502 4.58101 5.21905C4.75773 4.77724 5.02 4.43717 5.32859 4.12858L6.06192 3.39524C6.32227 3.13489 6.74438 3.13489 7.00473 3.39524C7.26508 3.65559 7.26508 4.0777 7.00473 4.33805L6.2714 5.07138C6.04666 5.29613 5.90892 5.48938 5.81898 5.71424C5.7147 5.97494 5.66666 6.22447 5.66666 6.46665C5.66666 6.78368 5.71782 7.03283 5.81898 7.28572C5.90892 7.51058 6.04666 7.70383 6.2714 7.92858C6.49614 8.15332 6.6894 8.29105 6.91426 8.381C7.17496 8.48528 7.42449 8.53331 7.66666 8.53331C7.90884 8.53331 8.15837 8.48528 8.41907 8.381C8.64393 8.29105 8.83718 8.15332 9.06192 7.92858L11.184 5.80646L11.84 5.08486C11.8471 5.07704 11.8544 5.06939 11.8619 5.06191C12.0867 4.83717 12.2244 4.64391 12.3143 4.41905C12.4186 4.15835 12.4667 3.90882 12.4667 3.66665C12.4667 3.42447 12.4186 3.17494 12.3143 2.91424C12.2244 2.68938 12.0867 2.49613 11.8619 2.27138C11.6372 2.04664 11.4439 1.90891 11.2191 1.81896C10.9584 1.71468 10.7088 1.66665 10.4667 1.66665C10.0985 1.66665 9.8 1.36817 9.8 0.99998ZM6.53333 1.99998C6.29115 1.99998 6.04162 2.04802 5.78092 2.1523C5.55606 2.24224 5.36281 2.37998 5.13807 2.60472L2.94928 4.7935L2.29329 5.51509C2.28618 5.52292 2.27888 5.53057 2.2714 5.53805C2.04666 5.76279 1.90892 5.95605 1.81898 6.18091C1.7147 6.44161 1.66666 6.69114 1.66666 6.93331C1.66666 7.17549 1.7147 7.42502 1.81898 7.68572C1.90892 7.91058 2.04666 8.10383 2.2714 8.32858C2.49614 8.55332 2.6894 8.69105 2.91426 8.781C3.17496 8.88528 3.42449 8.93331 3.66666 8.93331C4.03485 8.93331 4.33333 9.23179 4.33333 9.59998C4.33333 9.96817 4.03485 10.2666 3.66666 10.2666C3.24217 10.2666 2.82503 10.1814 2.41907 10.019C1.97726 9.84224 1.63718 9.57998 1.32859 9.27138C1.02 8.96279 0.757734 8.62272 0.58101 8.18091C0.418624 7.77494 0.333328 7.3578 0.333328 6.93331C0.333328 6.50882 0.418624 6.09168 0.58101 5.68572C0.755518 5.24945 1.01343 4.91238 1.317 4.60687L1.97337 3.88486C1.98048 3.87704 1.98778 3.86939 1.99526 3.86191L4.19526 1.66191C4.50385 1.35332 4.84393 1.09105 5.28573 0.914329C5.6917 0.751942 6.10884 0.666646 6.53333 0.666646C6.95782 0.666646 7.37496 0.751942 7.78092 0.914329C8.22273 1.09105 8.56281 1.35332 8.8714 1.66191C9.17999 1.9705 9.44226 2.31058 9.61898 2.75239C9.78137 3.15835 9.86666 3.57549 9.86666 3.99998C9.86666 4.42447 9.78137 4.84161 9.61898 5.24757C9.44428 5.68432 9.18599 6.02165 8.88199 6.32743L8.1581 7.11713C7.9093 7.38854 7.48759 7.40688 7.21618 7.15808C6.94477 6.90929 6.92643 6.48758 7.17523 6.21616L7.90856 5.41616C7.91508 5.40905 7.92176 5.40207 7.92859 5.39524C8.15333 5.1705 8.29107 4.97724 8.38101 4.75239C8.48529 4.49168 8.53333 4.24215 8.53333 3.99998C8.53333 3.7578 8.48529 3.50827 8.38101 3.24757C8.29107 3.02272 8.15333 2.82946 7.92859 2.60472C7.70385 2.37998 7.51059 2.24224 7.28574 2.1523C7.02503 2.04802 6.7755 1.99998 6.53333 1.99998Z" fill="#3B82F6"/>
</svg>
