<svg width="16" height="16" viewBox="0 0 16 16" fill="none" xmlns="http://www.w3.org/2000/svg">
<path d="M2.66667 2.66671C2.66667 1.93033 3.26363 1.33337 4.00001 1.33337H9.33334C9.51015 1.33337 9.67972 1.40361 9.80474 1.52864L13.1381 4.86197C13.2631 4.98699 13.3333 5.15656 13.3333 5.33337V13.3334C13.3333 14.0698 12.7364 14.6667 12 14.6667H4.00001C3.26363 14.6667 2.66667 14.0698 2.66667 13.3334V2.66671ZM11.7239 5.33337L9.33334 2.94285V5.33337H11.7239ZM8.00001 2.66671L4.00001 2.66671V13.3334H12V6.66671H8.66667C8.29848 6.66671 8.00001 6.36823 8.00001 6.00004V2.66671ZM5.33334 8.66671C5.33334 8.29852 5.63182 8.00004 6.00001 8.00004H10C10.3682 8.00004 10.6667 8.29852 10.6667 8.66671C10.6667 9.0349 10.3682 9.33337 10 9.33337H6.00001C5.63182 9.33337 5.33334 9.0349 5.33334 8.66671ZM5.33334 11.3334C5.33334 10.9652 5.63182 10.6667 6.00001 10.6667H10C10.3682 10.6667 10.6667 10.9652 10.6667 11.3334C10.6667 11.7016 10.3682 12 10 12H6.00001C5.63182 12 5.33334 11.7016 5.33334 11.3334Z" fill="#3B82F6"/>
</svg>
