<svg width="14" height="14" viewBox="0 0 14 14" fill="none" xmlns="http://www.w3.org/2000/svg">
<path fill-rule="evenodd" clip-rule="evenodd" d="M6.41667 11.6667C6.41667 11.3445 6.1555 11.0833 5.83333 11.0833H2.91667V2.91667H5.83333C6.1555 2.91667 6.41667 2.6555 6.41667 2.33333C6.41667 2.01117 6.1555 1.75 5.83333 1.75H2.91667C2.27233 1.75 1.75 2.27233 1.75 2.91667V11.0833C1.75 11.7277 2.27233 12.25 2.91667 12.25H5.83333C6.1555 12.25 6.41667 11.9888 6.41667 11.6667Z" fill="#1D4ED8"/>
<path d="M12.6663 7.40865C12.7203 7.35362 12.7613 7.29053 12.7891 7.22329C12.8174 7.15502 12.8331 7.08021 12.8333 7.00175L12.8333 7L12.8333 6.99825C12.8329 6.84955 12.7759 6.70098 12.6625 6.58752L10.3291 4.25419C10.1013 4.02638 9.73199 4.02638 9.50419 4.25419C9.27638 4.48199 9.27638 4.85134 9.50419 5.07915L10.8417 6.41667H5.25C4.92783 6.41667 4.66667 6.67783 4.66667 7C4.66667 7.32217 4.92783 7.58333 5.25 7.58333H10.8417L9.50419 8.92085C9.27638 9.14866 9.27638 9.51801 9.50419 9.74581C9.73199 9.97362 10.1013 9.97362 10.3291 9.74581L12.6621 7.41289L12.6663 7.40865Z" fill="#1D4ED8"/>
</svg>
