<svg width="55" height="32" viewBox="0 0 55 32" fill="none" xmlns="http://www.w3.org/2000/svg">
<path d="M8.08322 17.655H6.37257V24.7381H1.98901V6.21497H8.05649C10.5868 6.21497 12.4846 6.67827 13.7498 7.60487C15.0328 8.53148 15.6742 9.94811 15.6742 11.8548C15.6742 13.0487 15.3891 14.0466 14.8189 14.8484C14.2487 15.6325 13.3488 16.3007 12.1193 16.8531L16.8236 24.7381H11.8787L8.08322 17.655ZM6.37257 14.6346H8.21686C9.19693 14.6346 9.92752 14.4118 10.4086 13.9664C10.9076 13.5209 11.1571 12.817 11.1571 11.8548C11.1571 10.9638 10.8898 10.3134 10.3552 9.90356C9.83842 9.49372 9.03655 9.2888 7.94957 9.2888H6.37257V14.6346Z" fill="#1E40AF"/>
<path d="M35.031 6.21497L29.8723 24.7381H24.4196L19.0738 6.21497H23.6979L27.2262 21.3168L30.5406 6.21497H35.031Z" fill="#1E40AF"/>
<path d="M53.2685 18.5905C53.2685 19.8557 52.9923 20.9872 52.4399 21.9851C51.9054 22.9829 51.0946 23.767 50.0076 24.3372C48.9206 24.9074 47.5931 25.1925 46.025 25.1925C43.6728 25.1925 41.882 24.5956 40.6525 23.4017C39.4229 22.2078 38.8082 20.6041 38.8082 18.5905V6.21497H43.1917V18.4034C43.1917 19.5973 43.4145 20.4882 43.8599 21.0763C44.3232 21.6465 45.0449 21.9316 46.025 21.9316C47.0229 21.9316 47.7446 21.6465 48.19 21.0763C48.6533 20.4882 48.885 19.5973 48.885 18.4034C48.885 13.6435 48.885 10.9748 48.885 6.21497H53.2685V18.5905Z" fill="#1E40AF"/>
<mask id="mask0_48_869" style="mask-type:alpha" maskUnits="userSpaceOnUse" x="1" y="6" width="53" height="20">
<path d="M8.08322 17.655H6.37257V24.7381H1.98901V6.21497H8.05649C10.5868 6.21497 12.4846 6.67827 13.7498 7.60487C15.0328 8.53148 15.6742 9.94811 15.6742 11.8548C15.6742 13.0487 15.3891 14.0466 14.8189 14.8484C14.2487 15.6325 13.3488 16.3007 12.1193 16.8531L16.8236 24.7381H11.8787L8.08322 17.655ZM6.37257 14.6346H8.21686C9.19693 14.6346 9.92752 14.4118 10.4086 13.9664C10.9076 13.5209 11.1571 12.817 11.1571 11.8548C11.1571 10.9638 10.8898 10.3134 10.3552 9.90356C9.83842 9.49372 9.03655 9.2888 7.94957 9.2888H6.37257V14.6346Z" fill="#1E3A8A"/>
<path d="M35.031 6.21497L29.8723 24.7381H24.4196L19.0738 6.21497H23.6979L27.2262 21.3168L30.5406 6.21497H35.031Z" fill="#1E3A8A"/>
<path d="M53.2685 18.5905C53.2685 19.8557 52.9923 20.9872 52.4399 21.9851C51.9054 22.9829 51.0946 23.767 50.0076 24.3372C48.9206 24.9074 47.5931 25.1925 46.025 25.1925C43.6728 25.1925 41.882 24.5956 40.6525 23.4017C39.4229 22.2078 38.8082 20.6041 38.8082 18.5905V6.21497H43.1917V18.4034C43.1917 19.5973 43.4145 20.4882 43.8599 21.0763C44.3232 21.6465 45.0449 21.9316 46.025 21.9316C47.0229 21.9316 47.7446 21.6465 48.19 21.0763C48.6533 20.4882 48.885 19.5973 48.885 18.4034C48.885 13.6435 48.885 10.9748 48.885 6.21497H53.2685V18.5905Z" fill="#3B82F6"/>
</mask>
<g mask="url(#mask0_48_869)">
<rect x="45.8333" y="6.17651" width="8.40278" height="19.0972" fill="#2563EB"/>
<path d="M30.5556 6.17651H35.9028V26.0376L25.9722 27.0307L30.5556 6.17651Z" fill="#2563EB"/>
<path d="M6.34033 4.6488H17.0348V25.2738H6.34033V4.6488Z" fill="#2563EB"/>
</g>
</svg>
