<svg width="72" height="42" viewBox="0 0 72 42" fill="none" xmlns="http://www.w3.org/2000/svg">
<path d="M10.5816 23.0263H8.34223V32.2988H2.60376V8.05029H10.5466C13.8591 8.05029 16.3434 8.6568 17.9996 9.86981C19.6792 11.0828 20.519 12.9373 20.519 15.4333C20.519 16.9962 20.1457 18.3026 19.3993 19.3523C18.6528 20.3787 17.4748 21.2534 15.8652 21.9766L22.0236 32.2988H15.5503L10.5816 23.0263ZM8.34223 19.0723H10.7566C12.0396 19.0723 12.996 18.7808 13.6258 18.1976C14.279 17.6144 14.6056 16.693 14.6056 15.4333C14.6056 14.267 14.2556 13.4155 13.5558 12.879C12.8793 12.3425 11.8296 12.0742 10.4067 12.0742H8.34223V19.0723Z" fill="#1E40AF"/>
<path d="M45.8588 8.05029L39.1056 32.2988H31.9675L24.9693 8.05029H31.0227L35.6415 27.82L39.9803 8.05029H45.8588Z" fill="#1E40AF"/>
<path d="M69.7333 24.251C69.7333 25.9072 69.3717 27.3885 68.6486 28.6948C67.9488 30.0011 66.8874 31.0275 65.4645 31.774C64.0415 32.5204 62.3036 32.8937 60.2509 32.8937C57.1717 32.8937 54.8273 32.1122 53.2177 30.5493C51.6082 28.9864 50.8034 26.8869 50.8034 24.251V8.05029H56.5418V24.006C56.5418 25.5689 56.8334 26.7353 57.4166 27.5051C58.0231 28.2516 58.9679 28.6248 60.2509 28.6248C61.5572 28.6248 62.5019 28.2516 63.0851 27.5051C63.6916 26.7353 63.9949 25.5689 63.9949 24.006C63.9949 17.7749 63.9949 14.2814 63.9949 8.05029H69.7333V24.251Z" fill="#1E40AF"/>
<mask id="mask0_20_2985" style="mask-type:alpha" maskUnits="userSpaceOnUse" x="2" y="8" width="68" height="25">
<path d="M10.5816 23.0263H8.34223V32.2988H2.60376V8.05029H10.5466C13.8591 8.05029 16.3434 8.6568 17.9996 9.86981C19.6792 11.0828 20.519 12.9373 20.519 15.4333C20.519 16.9962 20.1457 18.3026 19.3993 19.3523C18.6528 20.3787 17.4748 21.2534 15.8652 21.9766L22.0236 32.2988H15.5503L10.5816 23.0263ZM8.34223 19.0723H10.7566C12.0396 19.0723 12.996 18.7808 13.6258 18.1976C14.279 17.6144 14.6056 16.693 14.6056 15.4333C14.6056 14.267 14.2556 13.4155 13.5558 12.879C12.8793 12.3425 11.8296 12.0742 10.4067 12.0742H8.34223V19.0723Z" fill="#1E3A8A"/>
<path d="M45.8588 8.05029L39.1056 32.2988H31.9675L24.9693 8.05029H31.0227L35.6415 27.82L39.9803 8.05029H45.8588Z" fill="#1E3A8A"/>
<path d="M69.7333 24.251C69.7333 25.9072 69.3717 27.3885 68.6486 28.6948C67.9488 30.0011 66.8874 31.0275 65.4645 31.774C64.0415 32.5204 62.3036 32.8937 60.2509 32.8937C57.1717 32.8937 54.8273 32.1122 53.2177 30.5493C51.6082 28.9864 50.8034 26.8869 50.8034 24.251V8.05029H56.5418V24.006C56.5418 25.5689 56.8334 26.7353 57.4166 27.5051C58.0231 28.2516 58.9679 28.6248 60.2509 28.6248C61.5572 28.6248 62.5019 28.2516 63.0851 27.5051C63.6916 26.7353 63.9949 25.5689 63.9949 24.006C63.9949 17.7749 63.9949 14.2814 63.9949 8.05029H69.7333V24.251Z" fill="#3B82F6"/>
</mask>
<g mask="url(#mask0_20_2985)">
<rect x="60" y="8" width="11" height="25" fill="#2563EB"/>
<path d="M40 8H47V34L34 35.3L40 8Z" fill="#2563EB"/>
<path d="M8.30005 6H22.3V33H8.30005V6Z" fill="#2563EB"/>
</g>
</svg>
