<svg width="16" height="16" viewBox="0 0 16 16" fill="none" xmlns="http://www.w3.org/2000/svg">
<path d="M8 2.66671C6.52724 2.66671 5.33333 3.86061 5.33333 5.33337C5.33333 6.80613 6.52724 8.00004 8 8.00004C9.47276 8.00004 10.6667 6.80613 10.6667 5.33337C10.6667 3.86061 9.47276 2.66671 8 2.66671ZM4 5.33337C4 3.12424 5.79086 1.33337 8 1.33337C10.2091 1.33337 12 3.12424 12 5.33337C12 7.54251 10.2091 9.33337 8 9.33337C5.79086 9.33337 4 7.54251 4 5.33337ZM5.33333 12C4.22876 12 3.33333 12.8955 3.33333 14C3.33333 14.3682 3.03486 14.6667 2.66667 14.6667C2.29848 14.6667 2 14.3682 2 14C2 12.1591 3.49239 10.6667 5.33333 10.6667H10.6667C12.5076 10.6667 14 12.1591 14 14C14 14.3682 13.7015 14.6667 13.3333 14.6667C12.9651 14.6667 12.6667 14.3682 12.6667 14C12.6667 12.8955 11.7712 12 10.6667 12H5.33333Z" fill="#3B82F6"/>
</svg>
